<svg width="538" height="474" viewBox="0 0 538 474" fill="none" xmlns="http://www.w3.org/2000/svg">
<rect opacity="0.2" x="2" y="55.0339" width="534" height="352" fill="#241722" stroke="url(#paint0_linear_183_880)" stroke-width="4"/>
<path fill-rule="evenodd" clip-rule="evenodd" d="M262.184 23.1894C263.945 27.8495 265.705 32.5104 267.466 37.1707C268.595 40.1571 269.722 43.143 270.85 46.1294C271.251 47.1883 271.473 48.2744 272.247 49.0095C274.071 50.7402 277.345 51.8417 279.537 53.0593C281.006 53.8752 282.475 54.6911 283.943 55.5069C284.7 55.928 286.379 56.4565 286.91 57.1552C287.494 57.925 287.218 59.3388 287.218 60.4033V69.5942V86.912C279.632 85.9636 272.046 85.0157 264.46 84.0672C274.567 95.7291 284.673 107.39 294.78 119.052C297.271 121.926 300.295 124.692 302.151 128.036C306.101 135.154 309.961 142.322 313.866 149.465C317.5 156.113 321.135 162.762 324.769 169.41L292.072 168.019C283.606 167.658 274.91 168.2 266.753 165.801C260.03 163.823 253.306 161.846 246.582 159.868C245.688 159.605 242.902 159.307 242.269 158.588C241.675 157.913 241.688 155.366 241.52 154.504C238.346 138.192 234.306 120.216 225.043 106.175C218.403 96.1097 209.442 87.2972 201.235 78.52C198.032 75.0943 194.773 71.7096 191.683 68.1798C190.892 67.2757 189.749 66.2499 189.226 65.1518C188.888 64.4423 188.415 63.0905 188.625 62.4607C188.716 62.1876 190.828 61.2079 191.13 61.0133C193.27 59.6381 195.391 58.2339 197.517 56.8366C203.49 52.9097 209.457 48.9731 215.464 45.0985C220.147 42.0774 224.817 38.8742 229.757 36.278C234.877 33.5869 240.516 31.6928 245.884 29.5667C251.308 27.4177 256.743 25.2934 262.184 23.1894Z" fill="#241722"/>
<path fill-rule="evenodd" clip-rule="evenodd" d="M78.0749 272.154C80.6796 274.609 85.4229 277.903 89.1723 276.405C91.0555 275.653 92.664 274.001 94.3794 272.936C96.3946 271.684 98.2892 270.432 99.9978 268.764C103.406 265.434 105.987 260.57 110.013 257.964C111.366 257.088 114.007 256.9 114.946 255.501C115.366 254.873 115.406 253.921 115.328 253.196C115.16 251.634 114.316 251.726 115.726 250.579H113.536C113.494 249.733 114.338 249.663 114.967 249.772C114.675 248.431 114.377 243.184 116.821 245.562C118.94 247.623 117.88 251.043 119.38 253.276C120.529 254.985 123.577 253.601 123.989 251.72C124.174 250.875 123.243 249.556 123.132 248.727C122.888 246.89 123.709 245.302 124.9 243.911C127.514 245.652 126.033 249.257 127.522 251.545C128.87 253.615 131.872 252.649 133.924 252.285C136.384 251.848 139.166 252.29 141.519 251.709C145.074 250.832 143.746 246.659 144.098 243.966C144.475 241.081 147.391 237.076 146.515 234.166C145.574 231.04 140.073 230.365 137.443 229.607C131.433 227.873 122.861 227.54 118.393 222.687C114.839 226.65 111.981 231.188 108.253 235.003C104.227 239.124 99.9272 242.929 96.0623 247.216C92.0399 251.678 87.8876 256.053 84.0113 260.644C82.3198 262.647 80.8349 264.805 79.0854 266.76C77.5298 268.497 75.8901 270.096 78.0749 272.154ZM256.705 195.076C254.858 194.094 254.623 194.71 254.624 196.733C255.155 195.761 255.683 195.501 256.705 195.076ZM272.363 234.394V230.829C270.583 230.783 271.677 233.832 272.363 234.394ZM272.798 239.704C272.798 238.125 272.841 236.622 272.386 235.086C272.147 236.76 271.69 238.208 272.798 239.704ZM265.143 348.159C263.508 348.312 260.988 347.185 259.613 348.468C258.2 349.787 258.314 353.624 257.979 355.405C257.426 358.348 256.936 361.301 256.47 364.258C256.165 366.197 255.787 368.166 257.979 368.908C261.219 370.004 265.848 368.44 269.224 368.298C275.895 368.017 282.562 367.627 289.238 367.491C295.709 367.361 302.195 367.464 308.636 368.137C311.545 368.441 314.391 368.978 317.271 369.464C318.789 369.721 322.856 370.793 324.227 369.513C326.807 367.104 322.518 361.48 320.674 359.892C317.25 356.944 312.382 354.819 308.089 353.538C305.795 352.854 301.971 350.933 300.164 353.082C298.777 354.73 298.832 356.93 296.845 358.179C292.242 361.072 294.935 352.772 297.812 351.75C295.88 347.229 292.199 353.612 290.672 355.146C290.128 355.691 288.361 357.49 287.594 356.586C287.019 355.909 288.167 353.483 288.379 352.823C288.703 351.82 289.52 350.295 289.285 349.208C288.86 347.241 286.1 346.705 284.447 346.541C281.884 346.287 279.37 347.1 276.836 347.371C272.95 347.787 269.034 347.794 265.143 348.159ZM290.878 162.845C295.938 163.247 301.029 162.474 306.077 163.107C310.853 163.707 315.353 165.46 319.856 167.071C313.162 151.373 304.503 137.082 293.948 123.695C288.692 117.028 283.039 110.406 277.36 104.096C274.717 101.16 271.984 98.3218 269.255 95.4686C266.821 92.923 265.077 88.6001 262.156 86.6993C259.663 85.0766 255.306 86.2339 252.543 86.3346C249.42 86.4484 245.62 86.7323 242.574 85.6928C240.367 84.9395 239.76 82.9294 242.523 82.8628C245.781 82.7837 248.986 83.1234 252.287 82.8179C260.84 82.0276 269.085 80.7287 277.708 81.4655C279.683 81.6339 282.283 82.4754 284.221 82.2227C285.615 82.0401 284.699 82.7411 285.668 81.6225C286.039 81.1946 286.486 80.1887 286.596 79.6204C287.213 76.428 285.46 71.8661 285.041 68.6521C284.653 65.6776 284.996 62.4084 284.27 59.5118C283.609 56.8759 281.594 56.5243 279.112 56.2426C272.323 55.4717 265.394 55.0615 258.574 54.4806C243.01 53.1549 226.951 51.1551 211.493 54.4311C205.911 55.6139 199.104 57.4431 194.118 60.3721C192.559 61.2875 190.985 62.3657 191.553 64.2626C192.141 66.2318 195.026 68.3118 196.454 69.609C207.013 79.1948 217.212 88.9722 224.629 101.272C234.089 116.956 239.517 133.896 242.702 151.868C243.387 155.735 244.023 157.759 248.001 158.872C252.272 160.067 256.394 160.844 260.822 161.207C270.832 162.029 280.873 162.046 290.878 162.845ZM287.488 58.9765C288.255 64.6859 289.293 70.3828 289.396 76.1372C289.434 78.3106 289.64 79.3996 291.951 79.8844C294.676 80.4556 297.446 80.8812 300.183 81.474C313.394 84.337 326.355 87.8531 339.279 91.8107C351.84 95.658 364.194 99.986 377.037 102.836C382.562 104.062 389.026 104.888 394.058 107.603C399.471 110.524 398.759 115.313 399.244 120.572C399.894 127.6 401.978 134.405 402.711 141.43C403.061 144.787 403.38 148.163 403.327 151.541C403.282 154.421 402.87 157.605 404.805 160.028C408.689 154.837 410.529 148.307 411.294 141.945C411.666 138.852 411.519 135.734 411.625 132.627C411.711 130.125 411.656 126.146 413.285 124.057C416.827 119.517 421.434 137.712 421.872 139.655C422.609 142.925 423.217 146.223 423.951 149.494C424.276 150.943 424.694 156.213 426.636 156.739C430.662 157.828 429.778 146.516 429.842 144.794C429.969 141.318 430.056 137.837 429.974 134.358C429.915 131.847 429.429 129.122 429.718 126.609C430.426 120.44 433.895 126.94 434.87 129.236C437.334 135.033 438.449 141.238 440.659 147.128C441.026 148.108 441.89 151.406 443.258 151.467C444.781 151.535 444.769 148.129 444.856 147.133C445.361 141.365 447.067 135.637 446.552 129.808C446.032 123.923 443.969 117.873 441.05 112.754C434.878 101.931 423.732 95.7172 413.056 90.0567C400.839 83.5797 387.94 78.4625 374.766 74.2938C358.922 69.2802 342.653 65.2236 326.286 62.3367C317.96 60.8682 309.505 59.8179 301.093 58.9759C298.136 58.68 295.179 58.5071 292.261 57.9444C291.159 57.7316 287.185 56.7206 287.488 58.9765ZM278.977 40.4997C283.151 40.5327 287.416 38.5089 291.482 37.6726C296.324 36.6758 301.053 35.2335 305.886 34.1928C315.351 32.1554 324.82 30.1686 334.276 28.0863C338.381 27.1822 342.506 26.3953 346.595 25.4243C350.97 24.3854 355.696 23.227 360.174 24.3461C366.961 26.0428 369.828 33.468 372.32 39.2628C374.08 43.3558 375.459 47.9183 378.205 51.4799C379.182 52.7498 380.571 54.2644 382.344 53.853C385.636 53.0895 385.113 48.7324 384.694 46.3241C384.086 42.829 383.226 39.3749 382.537 35.8957C382.259 34.4915 380.107 25.3014 383.949 26.7242C386.799 27.7796 388.306 34.7311 389.385 37.214C390.187 39.0591 391.036 40.8923 391.936 42.6919C393.136 45.0923 396.561 53.1128 400.353 52.0785C405.78 50.598 400.575 36.3315 399.65 33.3246C399.143 31.6741 393.627 19.1567 398.282 20.1797C400.265 20.6161 402.197 24.2989 403.208 25.8254C405.001 28.5329 406.788 31.2599 408.475 34.0341C410.211 36.8874 411.097 40.135 412.819 42.9468C413.725 44.4266 415.573 46.3986 417.378 45.0286C420.192 42.8944 418.524 35.4707 418.031 32.6635C417.115 27.4445 414.838 22.0942 411.714 17.8276C407.019 11.4167 398.161 9.34511 390.712 8.09968C381.098 6.49181 371.349 6.93162 361.694 7.88291C350.836 8.95311 340.143 10.099 329.44 12.2872C318.653 14.4924 307.86 16.6801 297.24 19.5965C292.236 20.9705 287.161 22.1887 282.229 23.8017C276.986 25.5159 271.868 27.6493 266.479 28.8845C268.374 33.6154 270.271 38.3462 272.166 43.0776C273.981 41.2826 276.458 40.4792 278.977 40.4997ZM186.054 53.5361C184.391 52.6269 182.555 52.1979 181.948 50.1884C181.412 48.4127 182.328 46.4009 182.766 44.6963C183.992 39.9239 184.314 34.9803 183.23 30.1516C182.193 31.7338 178.313 37.8199 175.953 34.1354C174.53 31.913 178.344 28.7161 179.457 27.1538C177.014 25.6462 173.525 21.5998 170.71 24.04C168.89 25.6178 168.12 27.1367 165.668 27.9036C162.692 28.835 159.89 28.6217 156.85 28.3645C154.723 28.1847 154.21 27.9008 153.379 29.5394C152.726 30.8275 152.389 32.4217 152.008 33.8048C151.257 36.5318 149.518 41.905 151.577 44.4596C153.381 46.6973 160.383 44.7788 161.355 47.6674C161.885 49.2428 159.354 49.2991 158.387 50.0786C157.19 51.0435 156.199 52.5791 155.548 53.9509C155.066 54.9653 154.333 56.6415 155.154 57.6787C156.287 59.1136 158.388 58.0252 159.301 56.9823C160.514 55.5969 160.908 53.7028 161.92 52.194C163.778 49.4254 163.889 51.6278 164.395 53.6158C164.92 55.6811 166.163 55.5388 168.066 55.804C171.405 56.2699 174.779 56.9271 178.03 57.822C179.696 58.2806 181.31 58.8649 182.897 59.5477C183.92 59.9869 185.692 61.3177 186.801 61.3302C188.857 61.3535 190.282 57.9154 191.343 56.481C189.582 55.4973 187.824 54.5045 186.054 53.5361ZM75.6602 264.062C80.7945 257.899 85.2408 251.204 90.3068 244.987C95.3028 238.855 101.083 233.494 106.689 227.94C109.335 225.319 111.871 222.444 114.792 220.121C116.971 218.388 118.648 218.361 121.269 219.129C128.717 221.31 136.3 223.936 143.348 227.191C149.911 230.222 155.889 234.115 163.007 235.805C170.271 237.531 177.826 238.085 185.271 237.657C192.909 237.218 200.113 235.629 207.376 233.294C214.254 231.081 221.427 229.15 227.31 224.765C233.477 220.169 238.242 213.559 242.657 207.341C244.893 204.194 247.111 200.888 248.618 197.321C249.924 194.225 250.778 190.571 253.124 188.048C253.699 188.863 254.415 189.563 254.707 190.52C254.84 190.955 254.056 190.942 254.136 191.288C254.288 191.939 255.155 192.604 255.659 192.958C257.47 194.233 257.481 193.218 257.006 195.601C256.73 196.991 257.253 200.125 259.519 199.101C258.685 200.1 260.01 201.36 260.443 202.183C260.74 201.841 261.111 201.722 261.553 201.825C260.725 203.475 261.214 203.518 262.017 204.829C262.164 205.068 262.683 206.322 262.609 206.216C263.429 207.385 264.377 207.679 264.855 209.134C265.249 210.329 265.148 211.644 265.586 212.837C266.116 212.105 266.645 211.373 267.175 210.641C267.067 211.217 266.851 212.069 266.599 212.592C266.441 212.918 265.763 213.681 265.772 213.859C265.809 214.524 266.64 214.364 266.876 214.938C267.321 216.016 266.678 216.174 266.921 217.225C267.198 218.431 267.944 217.949 268.298 218.977C268.365 219.172 267.842 219.94 267.925 220.361C268.042 220.956 268.581 221.289 268.772 221.818C269.256 223.164 269.08 224.15 269.753 225.441C270.014 225.941 270.393 226.275 270.577 226.844C270.738 227.345 270.391 228.41 270.702 228.859C272.203 231.02 271.992 227.297 271.878 226.373C270.923 218.62 267.858 210.618 265.053 203.372C263.659 199.771 262.303 196.058 260.555 192.61C259.851 191.221 259.04 189.788 257.877 188.726C256.407 187.382 254.321 186.844 252.99 185.343C253.2 185.58 251.546 184.015 251.811 184.53C251.574 184.07 251.987 183.448 251.841 183.003C251.658 182.45 251.313 182.334 250.928 181.85C250.237 180.982 249.416 180.55 250.501 179.444C248.89 179.088 248.12 178.565 247.798 176.839C247.563 175.577 248.037 175.659 247.209 174.818C246.378 173.972 245.956 174.632 245.432 173.168C244.806 171.416 244.39 169.034 244.015 167.201C243.687 165.601 244.482 163.247 243.133 162.117C241.425 160.686 239.896 161.292 240.202 158.414C240.501 155.609 239.629 153.909 238.753 151.254C237.005 145.955 236.329 140.359 234.796 134.996C231.524 123.551 225.744 113.232 219.529 103.157C213.786 93.8482 205.757 85.917 198.003 78.2788C195.881 76.1867 193.781 74.0645 191.875 71.7711C190.233 69.7962 189.483 67.1074 187.905 65.2327C186.946 64.0942 185.162 63.6072 183.823 63.0035C181.59 61.9965 178.93 60.6827 176.41 60.8864C177.411 64.262 177.738 68.2066 174.783 70.7379C171.198 73.8085 167.948 70.6184 164.662 68.8677C158.672 65.6764 150.106 68.606 144.883 63.8228C143.638 62.6838 143.291 60.8637 141.999 59.7997C141.049 59.0197 139.699 58.8217 138.631 58.2402C135.385 56.4736 133.81 53.2397 135.073 49.6672C136.229 46.4014 138.023 45.2687 134.028 43.6136C130.785 42.2708 129.552 40.2476 131.02 36.6456C132.42 33.2114 134.984 32.816 137.41 30.5686C139.76 28.3918 137.06 25.8584 135.3 24.2244C133.03 22.1164 132.596 20.2167 135.227 18.0245C137.983 15.7293 141.918 15.8096 145.131 16.9446C148.764 18.2276 151.158 20.3606 152.695 23.817C154.261 27.3358 158.141 26.3538 161.284 25.3731C164.29 24.4355 165.072 22.4123 167.046 20.2337C169.241 17.8106 173.715 19.8827 176.304 20.9899C182.68 23.7152 189.017 28.0163 189.271 35.6351C189.421 40.1782 187.5 44.0397 186.501 48.304C185.587 52.2036 191.852 51.8964 192.937 55.6686C204.51 49.5421 217.398 47.6674 230.335 47.2503C244.085 46.8065 258.033 46.4509 271.666 48.6198C268.501 43.1066 266.83 37.0609 264.077 31.397C263.285 29.7664 262.943 29.9058 261.194 30.3985C257.835 31.3447 254.5 32.4035 251.147 33.3781C238.899 36.9386 226.891 41.2285 215.048 45.9269C213.897 46.3838 211.327 47.652 210.318 46.2729C209.154 44.6826 211.847 42.722 212.937 41.9221C217.706 38.4236 223.615 36.3002 228.956 33.8458C240.633 28.4811 253.563 25.9347 265.746 21.9503C292.049 13.3471 319.259 6.81327 346.593 2.49776C353.263 1.44463 360.005 1.29044 366.704 0.5087C372.639 -0.183716 378.584 -0.167785 384.517 0.54739C395.476 1.86907 408.182 4.72066 414.371 14.7524C419.959 23.8102 423.689 33.9937 422.263 44.7378C421.835 47.9649 420.468 51.7866 416.486 50.9548C413.724 50.3779 412.257 48.0309 410.975 45.7403C409.037 42.2799 407.123 38.8196 405.023 35.4519C404.244 40.5014 407.074 45.4667 406.629 50.6106C406.327 54.1011 404.398 59.616 399.866 58.6277C393.655 57.2736 391.099 47.5701 388.112 42.9149C387.961 46.5004 389.218 50.0342 388.833 53.6277C388.454 57.1774 385.68 60.5286 381.784 60.0421C378.11 59.5835 375.722 55.6469 374.162 52.6833C371.99 48.5589 370.43 44.137 368.309 39.9854C366.321 36.0937 363.966 31.4607 359.22 30.7296C354.984 30.0765 350.13 31.5882 345.946 32.2117C334.339 33.9414 322.967 36.8863 311.488 39.2656C299.18 41.8162 286.581 43.3655 274.652 47.4813C278.847 53.1902 289.823 51.9567 296.071 52.5695C305.513 53.4957 315.077 54.1927 324.466 55.5593C333.739 56.9089 342.817 59.3047 352.018 61.044C361.17 62.7742 370.306 64.5072 379.162 67.4578C395.604 72.9363 412.321 79.8696 426.807 89.4285C433.548 93.8766 439.535 98.9602 443.699 105.981C447.889 113.046 449.903 121.034 450.671 129.161C451.149 134.221 450.337 138.6 449.357 143.525C448.647 147.091 448.417 153.061 445.558 155.672C440.101 160.655 435.57 140.441 434.563 138C433.837 142.001 435.024 164.541 426.268 162.707C422.36 161.89 421.474 156.526 420.826 153.296C419.644 147.407 418.585 141.399 416.563 135.727C415.265 143.369 414.724 151.331 411.928 158.63C410.071 163.478 404.772 172.079 401.078 163.781C398.307 157.557 399.258 150.414 398.926 143.806C398.558 136.483 396.455 129.42 395.711 122.17C395.423 119.361 395.684 116.195 392.861 114.662C390.438 113.347 386.895 112.918 384.249 112.184C376.413 110.008 368.526 108.008 360.726 105.7C352.924 103.39 345.229 100.692 337.531 98.0579C330.168 95.5391 322.65 94.107 315.198 91.9501C310.961 90.7235 306.775 89.4405 302.479 88.4164C300.48 87.9402 298.456 87.5692 296.461 87.0759C294.983 86.7107 293.035 85.3321 291.514 85.3565C289.95 85.3821 289.362 86.7067 287.567 86.8108C285.636 86.9223 283.672 86.4962 281.751 86.3488C277.071 85.9898 272.097 85.4095 267.428 86.0581C270.234 89.3864 274.024 91.6873 277.346 94.4444C281.176 97.6243 284.884 101.058 288.156 104.813C294.74 112.369 300.962 120.355 306.743 128.541C312.446 136.616 317.038 145.452 321.029 154.48C323.018 158.979 324.949 163.576 326.323 168.305C326.888 170.247 327.349 172.197 328.368 173.964C329.302 175.584 330.62 176.981 329.515 178.937C328.754 178.461 328.071 177.869 327.383 177.298C328.178 182.897 329.893 188.313 330.775 193.895C331.644 199.395 331.609 205.051 331.553 210.605C331.434 222.236 330.57 233.605 328.21 245.014C325.824 256.551 322.758 268 318.893 279.129C315.172 289.845 311.438 301.082 306.244 311.182C300.697 321.969 294.097 333.31 286.068 342.442C291.313 344.59 297.988 344.188 303.542 345.054C309.348 345.958 314.37 347.666 319.317 350.878C324.323 354.129 327.04 358.314 327.732 364.242C328.224 368.46 329.684 374.301 324.149 375.41C320.168 376.207 315.718 374.897 311.729 374.574C304.752 374.008 297.764 373.655 290.771 373.35C283.796 373.046 276.819 372.778 269.842 372.561C266.561 372.46 263.277 372.408 259.997 372.291C258.526 372.238 257.635 372.215 256.317 372.64C255.274 372.977 255.351 373.675 254.19 372.812C252.318 371.419 252.703 367.03 252.756 365.1C252.835 362.122 253.117 359.109 253.698 356.187C254.043 354.45 258.228 343.257 254.974 342.786C258.755 338.632 260.265 332.699 261.963 327.492C264.091 320.969 265.959 314.463 267.425 307.754C270.557 293.421 271.941 278.932 271.941 264.267C257.423 273.216 242.061 278.064 224.961 278.604C207.96 279.142 189.281 277.746 173.137 272.09C165.661 269.47 158.965 266.031 152.555 261.396C150.257 259.736 147.796 255.974 144.781 256.038C141.182 256.115 137.152 257.477 133.579 258.06C126.744 259.174 117.824 259.803 112.038 264.03C108.895 266.326 106.643 269.54 103.838 272.186C101.704 274.199 98.8826 275.292 96.765 277.305C94.4801 279.477 95.3875 282.314 91.5989 282.49C88.3604 282.639 84.8096 281.337 82.0166 279.807C76.4443 276.756 70.5101 270.243 75.6602 264.062Z" fill="#FEEDE1" fill-opacity="0.8"/>
<path fill-rule="evenodd" clip-rule="evenodd" d="M129.22 118.929C121.065 124.721 111.711 128.678 103.19 133.895C101.057 135.201 94.4112 137.912 94.4755 140.334C94.5131 141.75 96.5101 143.526 97.3846 144.507C98.8826 146.188 100.292 147.887 101.674 149.666C108.002 157.81 113.962 166.032 120.82 173.767C121.852 174.931 124.963 180.487 125.967 177.727C126.422 176.476 126.047 175.07 127.234 173.904C127.844 173.303 130.204 172.972 129.516 171.683C129.058 171.889 128.6 172.096 128.141 172.301C128.497 171.271 128.471 170.143 129.005 169.17C129.336 168.565 129.984 168.279 130.209 167.598C130.52 166.657 129.993 165.563 130.081 164.593C130.168 163.626 130.669 162.711 130.969 161.799C132.743 156.389 133.38 150.936 134.289 145.354C135.188 139.832 136.588 134.482 137.137 128.897C137.718 122.999 138.43 117.113 139.38 111.262C137.685 111.499 136.382 113.341 135.183 114.382C133.299 116.019 131.253 117.485 129.22 118.929ZM135.613 176.033C136.002 175.727 136.306 175.352 136.526 174.907C132.529 172.927 134.941 176.305 135.613 176.033ZM138.043 171.81C139.785 172.29 141.037 172.388 142.38 171.671C142.508 171.603 142.361 171.079 142.591 170.971C142.792 170.878 143.098 170.994 143.27 170.906C143.855 170.608 144.879 171.261 144.979 170.121C142.755 169.441 140.569 168.185 138.221 167.974C134.959 167.68 135.11 171.001 138.043 171.81ZM145.676 165.244C148.053 165.8 150.012 167.099 152.537 166.76C154.908 166.442 156.968 165.213 158.838 163.796C154.16 162.471 149.254 162.232 144.579 160.951C143.057 160.534 141.057 159.434 139.417 159.877C137.595 160.37 137.48 162.077 136.934 163.63C139.85 164.155 142.789 164.57 145.676 165.244ZM160.544 158.654C162.827 159.199 165.162 160.392 167.071 158.333C167.379 158.001 167.649 158.333 167.613 157.309C167.575 156.23 166.595 155.535 165.752 155.155C163.771 154.261 160.994 154.839 158.89 154.707C155.534 154.499 152.118 153.801 148.798 153.264C146.499 152.892 144.125 152.067 141.776 152.23C139.962 152.356 137.774 153.902 140.417 155.029C142.825 156.057 146.434 155.899 149.042 156.344C152.897 157.002 156.739 157.744 160.544 158.654ZM162.774 147.91C162.626 148.06 162.479 148.211 162.331 148.362C162.355 148.356 161.455 147.627 161.217 147.606C160.059 147.506 158.894 147.585 157.735 147.52C155.063 147.369 152.37 146.904 149.746 146.391C147.608 145.973 145.431 145.254 143.231 145.434C141.326 145.59 141.126 145.98 141.001 147.819C145.863 147.819 150.872 147.716 155.65 148.745C158.762 149.415 162.19 151.41 163.748 147.814C163.424 147.846 163.099 147.878 162.774 147.91ZM159.734 140.127C158.529 141.045 155.242 139.518 153.797 139.366C152.228 139.199 150.751 139.027 149.23 138.636C147.882 138.289 143.421 136.556 142.386 138.213C140.801 140.753 147.221 141.219 148.239 141.344C152.508 141.872 156.937 142.339 161.091 143.459C160.639 142.349 160.187 141.238 159.734 140.127ZM153.879 131.502C153.567 132.676 143.913 128.351 143.737 131.494C143.602 133.906 153.289 135.108 155.03 134.896C154.622 133.785 153.537 132.791 153.879 131.502ZM150.637 124.124C150.432 121.757 150.115 121.771 148.216 121.548C146.768 121.378 144.778 120.529 145.154 123.109C145.477 125.319 150.844 126.513 150.637 124.124ZM147.187 115.979C146.73 114.708 145.702 116.419 145.68 117.065C145.623 118.785 146.927 118.413 148.182 118.413C147.832 117.609 147.5 116.797 147.187 115.979ZM131.298 106.438C131.554 106.13 132.991 106.012 133.4 105.862C134.406 105.493 134.263 104.708 135.55 105.483C135.614 105.418 135.492 104.835 135.562 104.808C135.597 104.795 136.499 104.455 136.792 104.267C137.499 103.814 138.136 103.371 138.786 102.802C139.477 102.199 140.169 101.322 140.958 100.842C141.291 100.639 141.563 100.352 141.964 100.29C143.004 100.129 142.706 100.854 143.616 100.998C144.176 101.087 144.584 100.433 145.317 100.715C145.95 100.958 146.318 101.846 146.6 102.375C147.626 104.299 148.417 106.369 149.422 108.313C154.557 118.255 160.394 127.819 165.368 137.853C167.764 142.687 170.264 147.554 171.95 152.691C173.166 156.396 175.912 161.808 173.55 165.511C171.832 168.202 168.393 169.365 165.649 170.665C161.52 172.623 157.714 175.181 153.539 177.078C148.561 179.341 143.728 181.708 138.875 184.234C136.806 185.312 134.939 186.864 132.876 187.885C131.615 188.509 129.667 187.444 129.256 188.875C127.675 186.96 125.116 188.236 123.287 186.888C122.211 186.095 121.425 184.532 120.527 183.556C119.181 182.091 117.72 180.732 116.347 179.294C110.895 173.578 105.862 167.626 100.902 161.488C96.1653 155.626 90.6311 150.087 86.6296 143.671C85.0405 141.124 84.7526 138.452 85.8012 135.638C86.567 133.586 88.4116 130.486 91.0464 131.845C90.0473 130.186 93.9014 128.414 95.0706 128.09C95.0882 128.085 95.3187 129.36 95.6447 129.328C95.5286 129.339 96.6244 126.504 97.1058 126.141C98.535 125.059 100.274 123.797 101.833 122.907C103.264 122.09 104.773 121.686 106.158 120.772C107.838 119.665 109.38 118.352 111.066 117.252C112.693 116.19 114.508 114.935 116.307 114.205C117.867 113.572 119.268 113.448 120.671 112.41C122.408 111.126 123.922 110.255 125.925 109.37C127.657 108.605 130.058 107.937 131.298 106.438Z" fill="#FEEDE1" fill-opacity="0.8"/>
<path fill-rule="evenodd" clip-rule="evenodd" d="M367.787 260.194C367.468 259.445 367.151 258.697 366.832 257.95C366.438 259.254 366.328 259.902 367.787 260.194ZM367.363 263.649C368.053 263.773 367.781 261.608 367.781 261.231C366.589 261.906 367.576 262.715 367.363 263.649ZM368.439 257.404C367.851 257.056 367.262 256.709 366.674 256.362C367.493 257.88 367.172 256.931 366.834 257.945C367.452 258.123 368.053 257.915 368.439 257.404ZM371.925 269.268C374.131 277.269 381.135 283.579 388.533 286.848C392.784 288.725 396.964 289.195 401.555 288.986C403.325 288.905 405.409 288.33 407.113 288.437C408.425 288.519 408.366 288.576 409.452 289.687C409.933 288.802 409.585 288.18 410.549 287.665C411.753 287.022 412.252 287.771 412.849 288.661C413.63 287.852 413.95 287.429 414.962 286.948C414.93 286.963 415.931 286.925 415.89 286.938C416.071 286.882 417.16 286.182 417.5 286.055C418.899 285.53 420.516 285.315 421.806 284.562C422.935 283.905 423.865 282.06 425.156 283.477C425.157 281.108 428.349 280.126 429.844 278.885C432.182 276.946 434.04 274.075 435.205 271.298C436.448 268.336 436.862 265.497 437.444 262.446C437.85 260.313 440.511 257.23 438.913 255.079C438.532 255.981 438.711 256.905 438.079 257.723C437.51 256.627 437.197 255.4 436.94 254.2C436.813 253.613 436.082 251.887 436.165 251.375C436.334 250.327 437.631 250.27 436.912 248.986C435.42 250.609 434.216 247.759 435.343 246.622C435.9 247.25 436.104 247.963 436.361 248.74C437.827 245.779 433.768 246.733 434.656 244.06C433.174 243.775 432.323 243.401 431.759 241.938C431.133 240.309 431.594 239.954 430.171 238.877C429.682 238.507 428.298 237.975 428.045 237.367C427.555 236.191 428.802 235.842 427.71 234.74C427.342 235.387 425.904 236.667 425.117 235.449C424.96 235.206 425.622 235.033 425.14 234.473C424.427 233.645 423.63 232.833 422.424 233.007C423.379 230.62 417.278 230.431 415.716 229.868C414.15 229.304 412.822 228.934 411.162 228.803C409.503 228.672 409.421 228.186 408.016 227.187C407.898 228.616 407.554 228.302 406.538 228.554C406.294 228.135 406.044 228.088 405.788 228.413C405.533 228.655 405.221 228.769 404.854 228.755C404.296 228.785 403.663 228.712 403.079 228.724C401.707 228.75 400.292 228.636 398.947 228.665C398.6 228.607 398.275 228.486 397.972 228.303C397.845 228.542 397.717 228.781 397.591 229.021C396.878 229.11 396.823 230.003 395.946 229.026C395.687 230.268 394.941 229.622 394.154 229.959C393.436 230.267 393.322 230.758 392.659 231.101C392.223 231.455 391.756 231.501 391.256 231.242C390.781 231.595 390.299 231.937 389.809 232.268C388.908 232.777 387.845 233.089 386.895 233.491C386.263 233.752 385.634 234.023 385.011 234.304C384.993 235.057 384.655 235.322 384 235.101C383.408 235.597 383.241 235.577 382.666 236.421C381.364 238.333 380.209 239.819 378.565 241.528C371.419 248.958 369.223 259.464 371.925 269.268ZM369.732 237.672C372.959 233.351 377.526 228.403 381.63 225.675C383.71 224.291 386.629 221.807 389.173 221.076C389.776 220.902 390.401 220.891 390.993 220.709C391.451 220.568 391.701 220.098 392.223 220.014C392.588 219.954 392.629 220.772 393.017 220.697C393.828 220.539 394.342 219.734 394.915 219.23C396.146 221.351 396.814 217.784 398.621 220.182C400.771 216.81 405.824 217.547 409.258 217.717C410.276 217.767 410.755 218.13 411.658 218.398C412.498 218.648 412.581 218.584 413.499 218.577C415.784 218.559 417.813 218.847 419.926 219.85C423.475 221.536 426.733 224.163 430.104 226.195C433.871 228.465 437.267 231.356 440.15 234.677C450.57 246.685 453.356 264.213 445.047 278.134C431.85 300.244 397.809 302.607 378.52 287.605C363.618 276.013 357.946 253.451 369.732 237.672Z" fill="#FEEDE1" fill-opacity="0.8"/>
<path fill-rule="evenodd" clip-rule="evenodd" d="M206.392 175.453C206.762 176.336 210.221 176.039 210.297 174.997C210.409 173.44 205.748 173.917 206.392 175.453ZM202.718 174.875C200.758 175.034 197.538 176.365 195.649 175.561C192.766 174.333 195.793 172.449 197.34 171.885C198.914 171.312 201.258 171.617 202.067 169.971C202.675 168.734 201.171 165.279 203.037 165.834C204.996 166.417 204.426 171.366 207.499 169.698C208.965 168.902 208.367 164.053 210.822 166.53C211.494 167.208 211.552 168.452 212.442 168.957C213.35 169.473 214.489 168.936 215.448 168.981C217.986 169.1 218.795 171.474 216.223 172.416C215.271 172.764 211.683 173.19 213.857 174.745C215.226 175.725 218.268 173.669 219.444 175.375C221.061 177.718 216.731 177.771 215.568 178.471C213.597 179.658 215.225 182.431 215.068 184.405C214.827 187.422 213.075 186.791 212.438 184.238C211.898 182.072 212.567 178.955 209.302 179.815C203.985 181.217 212.259 187.968 208.364 189.695C205.88 190.797 205.529 184.843 205.336 183.817C204.622 180.033 202.496 180.916 199.276 181.032C195.514 181.168 194.606 178.385 198.59 177.588C199.861 177.334 201.609 177.655 202.713 176.845C203.366 176.367 204.264 174.749 202.718 174.875Z" fill="#FEEDE1" fill-opacity="0.8"/>
<path fill-rule="evenodd" clip-rule="evenodd" d="M341.614 298.505C344.659 297.415 349.752 297.65 350.506 301.582C350.821 303.228 350.207 304.969 349.07 306.165C347.752 307.552 345.652 307.68 345.764 305.266C345.842 303.594 347.433 302.143 344.637 301.806C342.897 301.597 340.324 302.898 340.237 304.82C340.041 309.152 347.54 309.492 350.304 308.742C355.788 307.256 354.298 301.512 350.532 298.89C349.559 298.212 346.767 297.169 346.639 295.762C346.47 293.896 348.778 294.277 349.909 294.523C358.223 296.332 360.035 310.26 351.348 312.886C347.402 314.078 341.847 312.847 339.469 309.274C337.24 305.924 337.21 300.082 341.614 298.505Z" fill="#FEEDE1" fill-opacity="0.8"/>
<path fill-rule="evenodd" clip-rule="evenodd" d="M451.851 199.907C454.45 201.158 457.049 202.41 459.647 203.661C460.506 201.822 461.958 196.8 464.137 196.159C467.664 195.121 465.418 200.595 464.809 201.847C464.309 202.875 463.149 204.468 463.431 205.694C463.808 207.345 466.138 207.93 467.357 208.781C470.374 210.89 470.35 215.318 465.981 213.442C463.508 212.379 460.446 209.434 458.551 212.778C457.676 214.321 455.603 222.942 453.438 217.304C452.098 213.814 458.547 210.187 455.367 207.234C454.344 206.284 453.146 206.204 452.123 205.658C449.654 204.338 451.046 201.9 451.851 199.907Z" fill="#FEEDE1" fill-opacity="0.8"/>
<path fill-rule="evenodd" clip-rule="evenodd" d="M70.8309 74.9992C72.3802 74.4326 74.297 73.326 76.0192 73.7032C77.8495 74.1037 78.5863 75.9369 79.9171 77.0389C83.5351 80.0356 85.6425 75.5693 87.6304 73.1217C89.5079 70.8106 91.7986 70.2496 94.4476 71.6697C95.503 72.2358 99.9494 74.8297 99.1739 76.4916C98.6163 77.6875 96.4196 76.6139 95.6703 76.3528C94.0437 75.7867 92.5331 75.2911 90.8695 76.1167C87.7488 77.6642 86.9391 81.908 83.1636 82.5697C79.2594 83.2542 79.1314 79.5389 76.3452 78.1404C74.4774 77.2034 73.1762 78.8624 71.3743 78.5319C69.6572 78.2172 68.8629 75.7184 70.8309 74.9992Z" fill="#FEEDE1" fill-opacity="0.8"/>
<path fill-rule="evenodd" clip-rule="evenodd" d="M102.351 89.9724C100.97 90.2723 100.069 87.5942 99.2043 86.9149C97.7705 85.7889 95.2848 85.5619 93.8248 86.6953C90.9738 88.9074 91.9564 93.6832 87.8969 94.928C84.2687 96.0409 82.5596 91.2623 79.5054 90.0726C77.7297 89.3807 75.7805 88.9279 76.4735 86.4455C76.952 84.729 78.3618 84.288 79.8946 84.9475C82.5289 86.0797 83.4232 90.6922 86.5462 90.7747C89.7773 90.86 90.1278 86.202 91.5149 84.1731C93.6297 81.0809 97.9771 80.3338 100.447 83.2907C101.193 84.1828 104.98 89.4029 102.351 89.9724Z" fill="#FEEDE1" fill-opacity="0.8"/>
<path fill-rule="evenodd" clip-rule="evenodd" d="M166.219 37.1679C164.298 38.4822 160.471 38.4367 158.701 36.8066C156.9 35.1481 159.304 34.8932 160.771 34.9438C161.899 34.9831 164.011 35.5424 163.368 33.5937C162.798 31.8647 159.661 32.7448 159.399 30.8468C161.76 30.4235 164.36 30.576 166.106 32.4313C167.369 33.7724 168.017 35.9372 166.219 37.1679Z" fill="#FEEDE1" fill-opacity="0.8"/>
<path d="M138.821 442.272L133.973 459H131.525L127.637 445.536L123.605 459L121.181 459.024L116.501 442.272H118.829L122.477 456.456L126.509 442.272H128.957L132.797 456.408L136.469 442.272H138.821ZM143.395 447.984C143.779 447.232 144.323 446.648 145.027 446.232C145.747 445.816 146.619 445.608 147.643 445.608V447.864H147.067C144.619 447.864 143.395 449.192 143.395 451.848V459H141.211V445.848H143.395V447.984ZM151.292 443.712C150.876 443.712 150.524 443.568 150.236 443.28C149.948 442.992 149.804 442.64 149.804 442.224C149.804 441.808 149.948 441.456 150.236 441.168C150.524 440.88 150.876 440.736 151.292 440.736C151.692 440.736 152.028 440.88 152.3 441.168C152.588 441.456 152.732 441.808 152.732 442.224C152.732 442.64 152.588 442.992 152.3 443.28C152.028 443.568 151.692 443.712 151.292 443.712ZM152.348 445.848V459H150.164V445.848H152.348ZM158.735 447.648V455.4C158.735 456.04 158.871 456.496 159.143 456.768C159.415 457.024 159.887 457.152 160.559 457.152H162.167V459H160.199C158.983 459 158.071 458.72 157.463 458.16C156.855 457.6 156.551 456.68 156.551 455.4V447.648H154.847V445.848H156.551V442.536H158.735V445.848H162.167V447.648H158.735ZM176.813 451.92C176.813 452.336 176.789 452.776 176.741 453.24H166.229C166.309 454.536 166.749 455.552 167.549 456.288C168.365 457.008 169.349 457.368 170.501 457.368C171.445 457.368 172.229 457.152 172.853 456.72C173.493 456.272 173.941 455.68 174.197 454.944H176.549C176.197 456.208 175.493 457.24 174.437 458.04C173.381 458.824 172.069 459.216 170.501 459.216C169.253 459.216 168.133 458.936 167.141 458.376C166.165 457.816 165.397 457.024 164.837 456C164.277 454.96 163.997 453.76 163.997 452.4C163.997 451.04 164.269 449.848 164.813 448.824C165.357 447.8 166.117 447.016 167.093 446.472C168.085 445.912 169.221 445.632 170.501 445.632C171.749 445.632 172.853 445.904 173.813 446.448C174.773 446.992 175.509 447.744 176.021 448.704C176.549 449.648 176.813 450.72 176.813 451.92ZM174.557 451.464C174.557 450.632 174.373 449.92 174.005 449.328C173.637 448.72 173.133 448.264 172.493 447.96C171.869 447.64 171.173 447.48 170.405 447.48C169.301 447.48 168.357 447.832 167.573 448.536C166.805 449.24 166.365 450.216 166.253 451.464H174.557ZM190.75 459.216C189.742 459.216 188.838 459.048 188.038 458.712C187.238 458.36 186.606 457.88 186.142 457.272C185.678 456.648 185.422 455.936 185.374 455.136H187.63C187.694 455.792 187.998 456.328 188.542 456.744C189.102 457.16 189.83 457.368 190.726 457.368C191.558 457.368 192.214 457.184 192.694 456.816C193.174 456.448 193.414 455.984 193.414 455.424C193.414 454.848 193.158 454.424 192.646 454.152C192.134 453.864 191.342 453.584 190.27 453.312C189.294 453.056 188.494 452.8 187.87 452.544C187.262 452.272 186.734 451.88 186.286 451.368C185.854 450.84 185.638 450.152 185.638 449.304C185.638 448.632 185.838 448.016 186.238 447.456C186.638 446.896 187.206 446.456 187.942 446.136C188.678 445.8 189.518 445.632 190.462 445.632C191.918 445.632 193.094 446 193.99 446.736C194.886 447.472 195.366 448.48 195.43 449.76H193.246C193.198 449.072 192.918 448.52 192.406 448.104C191.91 447.688 191.238 447.48 190.39 447.48C189.606 447.48 188.982 447.648 188.518 447.984C188.054 448.32 187.822 448.76 187.822 449.304C187.822 449.736 187.958 450.096 188.23 450.384C188.518 450.656 188.87 450.88 189.286 451.056C189.718 451.216 190.31 451.4 191.062 451.608C192.006 451.864 192.774 452.12 193.366 452.376C193.958 452.616 194.462 452.984 194.878 453.48C195.31 453.976 195.534 454.624 195.55 455.424C195.55 456.144 195.35 456.792 194.95 457.368C194.55 457.944 193.982 458.4 193.246 458.736C192.526 459.056 191.694 459.216 190.75 459.216ZM204.369 459.216C203.137 459.216 202.017 458.936 201.009 458.376C200.017 457.816 199.233 457.024 198.657 456C198.097 454.96 197.817 453.76 197.817 452.4C197.817 451.056 198.105 449.872 198.681 448.848C199.273 447.808 200.073 447.016 201.081 446.472C202.089 445.912 203.217 445.632 204.465 445.632C205.713 445.632 206.841 445.912 207.849 446.472C208.857 447.016 209.649 447.8 210.225 448.824C210.817 449.848 211.113 451.04 211.113 452.4C211.113 453.76 210.809 454.96 210.201 456C209.609 457.024 208.801 457.816 207.777 458.376C206.753 458.936 205.617 459.216 204.369 459.216ZM204.369 457.296C205.153 457.296 205.889 457.112 206.577 456.744C207.265 456.376 207.817 455.824 208.233 455.088C208.665 454.352 208.881 453.456 208.881 452.4C208.881 451.344 208.673 450.448 208.257 449.712C207.841 448.976 207.297 448.432 206.625 448.08C205.953 447.712 205.225 447.528 204.441 447.528C203.641 447.528 202.905 447.712 202.233 448.08C201.577 448.432 201.049 448.976 200.649 449.712C200.249 450.448 200.049 451.344 200.049 452.4C200.049 453.472 200.241 454.376 200.625 455.112C201.025 455.848 201.553 456.4 202.209 456.768C202.865 457.12 203.585 457.296 204.369 457.296ZM229.801 445.608C230.825 445.608 231.737 445.824 232.537 446.256C233.337 446.672 233.969 447.304 234.433 448.152C234.897 449 235.129 450.032 235.129 451.248V459H232.969V451.56C232.969 450.248 232.641 449.248 231.985 448.56C231.345 447.856 230.473 447.504 229.369 447.504C228.233 447.504 227.329 447.872 226.657 448.608C225.985 449.328 225.649 450.376 225.649 451.752V459H223.489V451.56C223.489 450.248 223.161 449.248 222.505 448.56C221.865 447.856 220.993 447.504 219.889 447.504C218.753 447.504 217.849 447.872 217.177 448.608C216.505 449.328 216.169 450.376 216.169 451.752V459H213.985V445.848H216.169V447.744C216.601 447.056 217.177 446.528 217.897 446.16C218.633 445.792 219.441 445.608 220.321 445.608C221.425 445.608 222.401 445.856 223.249 446.352C224.097 446.848 224.729 447.576 225.145 448.536C225.513 447.608 226.121 446.888 226.969 446.376C227.817 445.864 228.761 445.608 229.801 445.608ZM250.711 451.92C250.711 452.336 250.687 452.776 250.639 453.24H240.127C240.207 454.536 240.647 455.552 241.447 456.288C242.263 457.008 243.247 457.368 244.399 457.368C245.343 457.368 246.127 457.152 246.751 456.72C247.391 456.272 247.839 455.68 248.095 454.944H250.447C250.095 456.208 249.391 457.24 248.335 458.04C247.279 458.824 245.967 459.216 244.399 459.216C243.151 459.216 242.031 458.936 241.039 458.376C240.063 457.816 239.295 457.024 238.735 456C238.175 454.96 237.895 453.76 237.895 452.4C237.895 451.04 238.167 449.848 238.711 448.824C239.255 447.8 240.015 447.016 240.991 446.472C241.983 445.912 243.119 445.632 244.399 445.632C245.647 445.632 246.751 445.904 247.711 446.448C248.671 446.992 249.407 447.744 249.919 448.704C250.447 449.648 250.711 450.72 250.711 451.92ZM248.455 451.464C248.455 450.632 248.271 449.92 247.903 449.328C247.535 448.72 247.031 448.264 246.391 447.96C245.767 447.64 245.071 447.48 244.303 447.48C243.199 447.48 242.255 447.832 241.471 448.536C240.703 449.24 240.263 450.216 240.151 451.464H248.455ZM262.657 447.648V455.4C262.657 456.04 262.793 456.496 263.065 456.768C263.337 457.024 263.809 457.152 264.481 457.152H266.089V459H264.121C262.905 459 261.993 458.72 261.385 458.16C260.777 457.6 260.473 456.68 260.473 455.4V447.648H258.769V445.848H260.473V442.536H262.657V445.848H266.089V447.648H262.657ZM267.919 452.376C267.919 451.032 268.191 449.856 268.735 448.848C269.279 447.824 270.023 447.032 270.967 446.472C271.927 445.912 272.991 445.632 274.159 445.632C275.311 445.632 276.311 445.88 277.159 446.376C278.007 446.872 278.639 447.496 279.055 448.248V445.848H281.263V459H279.055V456.552C278.623 457.32 277.975 457.96 277.111 458.472C276.263 458.968 275.271 459.216 274.135 459.216C272.967 459.216 271.911 458.928 270.967 458.352C270.023 457.776 269.279 456.968 268.735 455.928C268.191 454.888 267.919 453.704 267.919 452.376ZM279.055 452.4C279.055 451.408 278.855 450.544 278.455 449.808C278.055 449.072 277.511 448.512 276.823 448.128C276.151 447.728 275.407 447.528 274.591 447.528C273.775 447.528 273.031 447.72 272.359 448.104C271.687 448.488 271.151 449.048 270.751 449.784C270.351 450.52 270.151 451.384 270.151 452.376C270.151 453.384 270.351 454.264 270.751 455.016C271.151 455.752 271.687 456.32 272.359 456.72C273.031 457.104 273.775 457.296 274.591 457.296C275.407 457.296 276.151 457.104 276.823 456.72C277.511 456.32 278.055 455.752 278.455 455.016C278.855 454.264 279.055 453.392 279.055 452.4ZM289.609 459.216C288.601 459.216 287.697 459.048 286.897 458.712C286.097 458.36 285.465 457.88 285.001 457.272C284.537 456.648 284.281 455.936 284.233 455.136H286.489C286.553 455.792 286.857 456.328 287.401 456.744C287.961 457.16 288.689 457.368 289.585 457.368C290.417 457.368 291.073 457.184 291.553 456.816C292.033 456.448 292.273 455.984 292.273 455.424C292.273 454.848 292.017 454.424 291.505 454.152C290.993 453.864 290.201 453.584 289.129 453.312C288.153 453.056 287.353 452.8 286.729 452.544C286.121 452.272 285.593 451.88 285.145 451.368C284.713 450.84 284.497 450.152 284.497 449.304C284.497 448.632 284.697 448.016 285.097 447.456C285.497 446.896 286.065 446.456 286.801 446.136C287.537 445.8 288.377 445.632 289.321 445.632C290.777 445.632 291.953 446 292.849 446.736C293.745 447.472 294.225 448.48 294.289 449.76H292.105C292.057 449.072 291.777 448.52 291.265 448.104C290.769 447.688 290.097 447.48 289.249 447.48C288.465 447.48 287.841 447.648 287.377 447.984C286.913 448.32 286.681 448.76 286.681 449.304C286.681 449.736 286.817 450.096 287.089 450.384C287.377 450.656 287.729 450.88 288.145 451.056C288.577 451.216 289.169 451.4 289.921 451.608C290.865 451.864 291.633 452.12 292.225 452.376C292.817 452.616 293.321 452.984 293.737 453.48C294.169 453.976 294.393 454.624 294.409 455.424C294.409 456.144 294.209 456.792 293.809 457.368C293.409 457.944 292.841 458.4 292.105 458.736C291.385 459.056 290.553 459.216 289.609 459.216ZM304.837 459L299.677 453.192V459H297.493V441.24H299.677V451.68L304.741 445.848H307.789L301.597 452.4L307.813 459H304.837ZM321.979 459.216C320.747 459.216 319.627 458.936 318.619 458.376C317.627 457.816 316.843 457.024 316.267 456C315.707 454.96 315.427 453.76 315.427 452.4C315.427 451.056 315.715 449.872 316.291 448.848C316.883 447.808 317.683 447.016 318.691 446.472C319.699 445.912 320.827 445.632 322.075 445.632C323.323 445.632 324.451 445.912 325.459 446.472C326.467 447.016 327.259 447.8 327.835 448.824C328.427 449.848 328.723 451.04 328.723 452.4C328.723 453.76 328.419 454.96 327.811 456C327.219 457.024 326.411 457.816 325.387 458.376C324.363 458.936 323.227 459.216 321.979 459.216ZM321.979 457.296C322.763 457.296 323.499 457.112 324.187 456.744C324.875 456.376 325.427 455.824 325.843 455.088C326.275 454.352 326.491 453.456 326.491 452.4C326.491 451.344 326.283 450.448 325.867 449.712C325.451 448.976 324.907 448.432 324.235 448.08C323.563 447.712 322.835 447.528 322.051 447.528C321.251 447.528 320.515 447.712 319.843 448.08C319.187 448.432 318.659 448.976 318.259 449.712C317.859 450.448 317.659 451.344 317.659 452.4C317.659 453.472 317.851 454.376 318.235 455.112C318.635 455.848 319.163 456.4 319.819 456.768C320.475 457.12 321.195 457.296 321.979 457.296ZM333.778 447.984C334.162 447.232 334.706 446.648 335.41 446.232C336.13 445.816 337.002 445.608 338.026 445.608V447.864H337.45C335.002 447.864 333.778 449.192 333.778 451.848V459H331.594V445.848H333.778V447.984ZM353.354 445.608C354.954 445.608 356.25 446.096 357.242 447.072C358.234 448.032 358.73 449.424 358.73 451.248V459H356.57V451.56C356.57 450.248 356.242 449.248 355.586 448.56C354.93 447.856 354.034 447.504 352.898 447.504C351.746 447.504 350.826 447.864 350.138 448.584C349.466 449.304 349.13 450.352 349.13 451.728V459H346.946V445.848H349.13V447.72C349.562 447.048 350.146 446.528 350.882 446.16C351.634 445.792 352.458 445.608 353.354 445.608ZM368.033 459.216C366.801 459.216 365.681 458.936 364.673 458.376C363.681 457.816 362.897 457.024 362.321 456C361.761 454.96 361.481 453.76 361.481 452.4C361.481 451.056 361.769 449.872 362.345 448.848C362.937 447.808 363.737 447.016 364.745 446.472C365.753 445.912 366.881 445.632 368.129 445.632C369.377 445.632 370.505 445.912 371.513 446.472C372.521 447.016 373.313 447.8 373.889 448.824C374.481 449.848 374.777 451.04 374.777 452.4C374.777 453.76 374.473 454.96 373.865 456C373.273 457.024 372.465 457.816 371.441 458.376C370.417 458.936 369.281 459.216 368.033 459.216ZM368.033 457.296C368.817 457.296 369.553 457.112 370.241 456.744C370.929 456.376 371.481 455.824 371.897 455.088C372.329 454.352 372.545 453.456 372.545 452.4C372.545 451.344 372.337 450.448 371.921 449.712C371.505 448.976 370.961 448.432 370.289 448.08C369.617 447.712 368.889 447.528 368.105 447.528C367.305 447.528 366.569 447.712 365.897 448.08C365.241 448.432 364.713 448.976 364.313 449.712C363.913 450.448 363.713 451.344 363.713 452.4C363.713 453.472 363.905 454.376 364.289 455.112C364.689 455.848 365.217 456.4 365.873 456.768C366.529 457.12 367.249 457.296 368.033 457.296ZM380.313 447.648V455.4C380.313 456.04 380.449 456.496 380.721 456.768C380.993 457.024 381.465 457.152 382.137 457.152H383.745V459H381.777C380.561 459 379.649 458.72 379.041 458.16C378.433 457.6 378.129 456.68 378.129 455.4V447.648H376.425V445.848H378.129V442.536H380.313V445.848H383.745V447.648H380.313ZM398.391 451.92C398.391 452.336 398.367 452.776 398.319 453.24H387.807C387.887 454.536 388.327 455.552 389.127 456.288C389.943 457.008 390.927 457.368 392.079 457.368C393.023 457.368 393.807 457.152 394.431 456.72C395.071 456.272 395.519 455.68 395.775 454.944H398.127C397.775 456.208 397.071 457.24 396.015 458.04C394.959 458.824 393.647 459.216 392.079 459.216C390.831 459.216 389.711 458.936 388.719 458.376C387.743 457.816 386.975 457.024 386.415 456C385.855 454.96 385.575 453.76 385.575 452.4C385.575 451.04 385.847 449.848 386.391 448.824C386.935 447.8 387.695 447.016 388.671 446.472C389.663 445.912 390.799 445.632 392.079 445.632C393.327 445.632 394.431 445.904 395.391 446.448C396.351 446.992 397.087 447.744 397.599 448.704C398.127 449.648 398.391 450.72 398.391 451.92ZM396.135 451.464C396.135 450.632 395.951 449.92 395.583 449.328C395.215 448.72 394.711 448.264 394.071 447.96C393.447 447.64 392.751 447.48 391.983 447.48C390.879 447.48 389.935 447.832 389.151 448.536C388.383 449.24 387.943 450.216 387.831 451.464H396.135ZM408.944 448.848C408.528 448.848 408.176 448.704 407.888 448.416C407.6 448.128 407.456 447.776 407.456 447.36C407.456 446.944 407.6 446.592 407.888 446.304C408.176 446.016 408.528 445.872 408.944 445.872C409.344 445.872 409.68 446.016 409.952 446.304C410.24 446.592 410.384 446.944 410.384 447.36C410.384 447.776 410.24 448.128 409.952 448.416C409.68 448.704 409.344 448.848 408.944 448.848ZM410.528 455.976L407.84 462.432H406.376L408.128 455.976H410.528ZM413.304 463.464V463.248C414.952 461.552 416.2 459.576 417.048 457.32C417.912 455.064 418.344 452.696 418.344 450.216C418.344 447.672 417.888 445.224 416.976 442.872C416.08 440.504 414.736 438.48 412.944 436.8V436.584H415.224C416.904 438.136 418.192 440.112 419.088 442.512C420 444.896 420.456 447.464 420.456 450.216C420.456 452.904 420.024 455.408 419.16 457.728C418.312 460.048 417.12 461.96 415.584 463.464H413.304Z" fill="#FEEDE1"/>
<defs>
<linearGradient id="paint0_linear_183_880" x1="269" y1="53.0339" x2="269" y2="409.034" gradientUnits="userSpaceOnUse">
<stop stop-color="#632329"/>
<stop offset="0.49648" stop-color="#F25551"/>
<stop offset="1" stop-color="#50F283" stop-opacity="0.8"/>
</linearGradient>
</defs>
</svg>
