<svg width="725" height="312" viewBox="0 0 725 312" fill="none" xmlns="http://www.w3.org/2000/svg">
<rect opacity="0.2" x="129" y="2" width="467" height="308" fill="#241722" stroke="url(#paint0_linear_278_201)" stroke-width="4"/>
<path d="M72.576 111.144V128.68H48.768V201H26.88V128.68H3.072V111.144H72.576ZM126.057 201.896C117.609 201.896 109.844 199.933 102.761 196.008C95.7637 192.083 90.1743 186.621 85.993 179.624C81.897 172.541 79.849 164.605 79.849 155.816C79.849 147.027 81.897 139.133 85.993 132.136C90.1743 125.139 95.7637 119.677 102.761 115.752C109.844 111.827 117.609 109.864 126.057 109.864C134.505 109.864 142.228 111.827 149.225 115.752C156.308 119.677 161.854 125.139 165.865 132.136C169.961 139.133 172.009 147.027 172.009 155.816C172.009 164.605 169.961 172.541 165.865 179.624C161.769 186.621 156.222 192.083 149.225 196.008C142.228 199.933 134.505 201.896 126.057 201.896ZM126.057 181.928C133.225 181.928 138.942 179.539 143.209 174.76C147.561 169.981 149.737 163.667 149.737 155.816C149.737 147.88 147.561 141.565 143.209 136.872C138.942 132.093 133.225 129.704 126.057 129.704C118.804 129.704 113.001 132.051 108.649 136.744C104.382 141.437 102.249 147.795 102.249 155.816C102.249 163.752 104.382 170.109 108.649 174.888C113.001 179.581 118.804 181.928 126.057 181.928ZM239.226 146.984V165.16H182.906V146.984H239.226ZM292.1 111.144C301.572 111.144 309.849 113.021 316.932 116.776C324.015 120.531 329.476 125.821 333.316 132.648C337.241 139.389 339.204 147.197 339.204 156.072C339.204 164.861 337.241 172.669 333.316 179.496C329.476 186.323 323.972 191.613 316.804 195.368C309.721 199.123 301.487 201 292.1 201H258.436V111.144H292.1ZM290.692 182.056C298.969 182.056 305.412 179.795 310.02 175.272C314.628 170.749 316.932 164.349 316.932 156.072C316.932 147.795 314.628 141.352 310.02 136.744C305.412 132.136 298.969 129.832 290.692 129.832H280.324V182.056H290.692ZM393.932 201.896C385.484 201.896 377.719 199.933 370.636 196.008C363.639 192.083 358.049 186.621 353.868 179.624C349.772 172.541 347.724 164.605 347.724 155.816C347.724 147.027 349.772 139.133 353.868 132.136C358.049 125.139 363.639 119.677 370.636 115.752C377.719 111.827 385.484 109.864 393.932 109.864C402.38 109.864 410.103 111.827 417.1 115.752C424.183 119.677 429.729 125.139 433.74 132.136C437.836 139.133 439.884 147.027 439.884 155.816C439.884 164.605 437.836 172.541 433.74 179.624C429.644 186.621 424.097 192.083 417.1 196.008C410.103 199.933 402.38 201.896 393.932 201.896ZM393.932 181.928C401.1 181.928 406.817 179.539 411.084 174.76C415.436 169.981 417.612 163.667 417.612 155.816C417.612 147.88 415.436 141.565 411.084 136.872C406.817 132.093 401.1 129.704 393.932 129.704C386.679 129.704 380.876 132.051 376.524 136.744C372.257 141.437 370.124 147.795 370.124 155.816C370.124 163.752 372.257 170.109 376.524 174.888C380.876 179.581 386.679 181.928 393.932 181.928ZM501.074 184.104H529.746V201H479.186V111.144H501.074V184.104ZM562.074 111.144V201H540.186V111.144H562.074ZM610.448 201.896C603.877 201.896 597.989 200.829 592.784 198.696C587.579 196.563 583.397 193.405 580.24 189.224C577.168 185.043 575.547 180.008 575.376 174.12H598.672C599.013 177.448 600.165 180.008 602.128 181.8C604.091 183.507 606.651 184.36 609.808 184.36C613.051 184.36 615.611 183.635 617.488 182.184C619.365 180.648 620.304 178.557 620.304 175.912C620.304 173.693 619.536 171.859 618 170.408C616.549 168.957 614.715 167.763 612.496 166.824C610.363 165.885 607.291 164.819 603.28 163.624C597.477 161.832 592.741 160.04 589.072 158.248C585.403 156.456 582.245 153.811 579.6 150.312C576.955 146.813 575.632 142.248 575.632 136.616C575.632 128.253 578.661 121.725 584.72 117.032C590.779 112.253 598.672 109.864 608.4 109.864C618.299 109.864 626.277 112.253 632.336 117.032C638.395 121.725 641.637 128.296 642.064 136.744H618.384C618.213 133.843 617.147 131.581 615.184 129.96C613.221 128.253 610.704 127.4 607.632 127.4C604.987 127.4 602.853 128.125 601.232 129.576C599.611 130.941 598.8 132.947 598.8 135.592C598.8 138.493 600.165 140.755 602.896 142.376C605.627 143.997 609.893 145.747 615.696 147.624C621.499 149.587 626.192 151.464 629.776 153.256C633.445 155.048 636.603 157.651 639.248 161.064C641.893 164.477 643.216 168.872 643.216 174.248C643.216 179.368 641.893 184.019 639.248 188.2C636.688 192.381 632.933 195.709 627.984 198.184C623.035 200.659 617.189 201.896 610.448 201.896ZM721.326 111.144V128.68H697.518V201H675.63V128.68H651.822V111.144H721.326Z" fill="#FEEDE1"/>
<path opacity="0.6" d="M252.72 262.84C253.573 262.84 254.333 263.02 255 263.38C255.667 263.727 256.193 264.253 256.58 264.96C256.967 265.667 257.16 266.527 257.16 267.54V274H255.36V267.8C255.36 266.707 255.087 265.873 254.54 265.3C254.007 264.713 253.28 264.42 252.36 264.42C251.413 264.42 250.66 264.727 250.1 265.34C249.54 265.94 249.26 266.813 249.26 267.96V274H247.46V267.8C247.46 266.707 247.187 265.873 246.64 265.3C246.107 264.713 245.38 264.42 244.46 264.42C243.513 264.42 242.76 264.727 242.2 265.34C241.64 265.94 241.36 266.813 241.36 267.96V274H239.54V263.04H241.36V264.62C241.72 264.047 242.2 263.607 242.8 263.3C243.413 262.993 244.087 262.84 244.82 262.84C245.74 262.84 246.553 263.047 247.26 263.46C247.967 263.873 248.493 264.48 248.84 265.28C249.147 264.507 249.653 263.907 250.36 263.48C251.067 263.053 251.853 262.84 252.72 262.84ZM259.465 268.48C259.465 267.36 259.692 266.38 260.145 265.54C260.599 264.687 261.219 264.027 262.005 263.56C262.805 263.093 263.692 262.86 264.665 262.86C265.625 262.86 266.459 263.067 267.165 263.48C267.872 263.893 268.399 264.413 268.745 265.04V263.04H270.585V274H268.745V271.96C268.385 272.6 267.845 273.133 267.125 273.56C266.419 273.973 265.592 274.18 264.645 274.18C263.672 274.18 262.792 273.94 262.005 273.46C261.219 272.98 260.599 272.307 260.145 271.44C259.692 270.573 259.465 269.587 259.465 268.48ZM268.745 268.5C268.745 267.673 268.579 266.953 268.245 266.34C267.912 265.727 267.459 265.26 266.885 264.94C266.325 264.607 265.705 264.44 265.025 264.44C264.345 264.44 263.725 264.6 263.165 264.92C262.605 265.24 262.159 265.707 261.825 266.32C261.492 266.933 261.325 267.653 261.325 268.48C261.325 269.32 261.492 270.053 261.825 270.68C262.159 271.293 262.605 271.767 263.165 272.1C263.725 272.42 264.345 272.58 265.025 272.58C265.705 272.58 266.325 272.42 266.885 272.1C267.459 271.767 267.912 271.293 268.245 270.68C268.579 270.053 268.745 269.327 268.745 268.5ZM272.981 268.48C272.981 267.36 273.208 266.38 273.661 265.54C274.114 264.687 274.734 264.027 275.521 263.56C276.321 263.093 277.214 262.86 278.201 262.86C279.054 262.86 279.848 263.06 280.581 263.46C281.314 263.847 281.874 264.36 282.261 265V259.2H284.101V274H282.261V271.94C281.901 272.593 281.368 273.133 280.661 273.56C279.954 273.973 279.128 274.18 278.181 274.18C277.208 274.18 276.321 273.94 275.521 273.46C274.734 272.98 274.114 272.307 273.661 271.44C273.208 270.573 272.981 269.587 272.981 268.48ZM282.261 268.5C282.261 267.673 282.094 266.953 281.761 266.34C281.428 265.727 280.974 265.26 280.401 264.94C279.841 264.607 279.221 264.44 278.541 264.44C277.861 264.44 277.241 264.6 276.681 264.92C276.121 265.24 275.674 265.707 275.341 266.32C275.008 266.933 274.841 267.653 274.841 268.48C274.841 269.32 275.008 270.053 275.341 270.68C275.674 271.293 276.121 271.767 276.681 272.1C277.241 272.42 277.861 272.58 278.541 272.58C279.221 272.58 279.841 272.42 280.401 272.1C280.974 271.767 281.428 271.293 281.761 270.68C282.094 270.053 282.261 269.327 282.261 268.5ZM297.177 268.1C297.177 268.447 297.157 268.813 297.117 269.2H288.357C288.423 270.28 288.79 271.127 289.457 271.74C290.137 272.34 290.957 272.64 291.917 272.64C292.703 272.64 293.357 272.46 293.877 272.1C294.41 271.727 294.783 271.233 294.997 270.62H296.957C296.663 271.673 296.077 272.533 295.197 273.2C294.317 273.853 293.223 274.18 291.917 274.18C290.877 274.18 289.943 273.947 289.117 273.48C288.303 273.013 287.663 272.353 287.197 271.5C286.73 270.633 286.497 269.633 286.497 268.5C286.497 267.367 286.723 266.373 287.177 265.52C287.63 264.667 288.263 264.013 289.077 263.56C289.903 263.093 290.85 262.86 291.917 262.86C292.957 262.86 293.877 263.087 294.677 263.54C295.477 263.993 296.09 264.62 296.517 265.42C296.957 266.207 297.177 267.1 297.177 268.1ZM295.297 267.72C295.297 267.027 295.143 266.433 294.837 265.94C294.53 265.433 294.11 265.053 293.577 264.8C293.057 264.533 292.477 264.4 291.837 264.4C290.917 264.4 290.13 264.693 289.477 265.28C288.837 265.867 288.47 266.68 288.377 267.72H295.297ZM306.731 265.08C307.104 264.427 307.651 263.893 308.371 263.48C309.091 263.067 309.911 262.86 310.831 262.86C311.818 262.86 312.704 263.093 313.491 263.56C314.278 264.027 314.898 264.687 315.351 265.54C315.804 266.38 316.031 267.36 316.031 268.48C316.031 269.587 315.804 270.573 315.351 271.44C314.898 272.307 314.271 272.98 313.471 273.46C312.684 273.94 311.804 274.18 310.831 274.18C309.884 274.18 309.051 273.973 308.331 273.56C307.624 273.147 307.091 272.62 306.731 271.98V274H304.911V259.2H306.731V265.08ZM314.171 268.48C314.171 267.653 314.004 266.933 313.671 266.32C313.338 265.707 312.884 265.24 312.311 264.92C311.751 264.6 311.131 264.44 310.451 264.44C309.784 264.44 309.164 264.607 308.591 264.94C308.031 265.26 307.578 265.733 307.231 266.36C306.898 266.973 306.731 267.687 306.731 268.5C306.731 269.327 306.898 270.053 307.231 270.68C307.578 271.293 308.031 271.767 308.591 272.1C309.164 272.42 309.784 272.58 310.451 272.58C311.131 272.58 311.751 272.42 312.311 272.1C312.884 271.767 313.338 271.293 313.671 270.68C314.004 270.053 314.171 269.32 314.171 268.48ZM327.867 263.04L321.267 279.16H319.387L321.547 273.88L317.127 263.04H319.147L322.587 271.92L325.987 263.04H327.867ZM345.028 268.1C345.028 268.447 345.008 268.813 344.968 269.2H336.208C336.275 270.28 336.642 271.127 337.308 271.74C337.988 272.34 338.808 272.64 339.768 272.64C340.555 272.64 341.208 272.46 341.728 272.1C342.262 271.727 342.635 271.233 342.848 270.62H344.808C344.515 271.673 343.928 272.533 343.048 273.2C342.168 273.853 341.075 274.18 339.768 274.18C338.728 274.18 337.795 273.947 336.968 273.48C336.155 273.013 335.515 272.353 335.048 271.5C334.582 270.633 334.348 269.633 334.348 268.5C334.348 267.367 334.575 266.373 335.028 265.52C335.482 264.667 336.115 264.013 336.928 263.56C337.755 263.093 338.702 262.86 339.768 262.86C340.808 262.86 341.728 263.087 342.528 263.54C343.328 263.993 343.942 264.62 344.368 265.42C344.808 266.207 345.028 267.1 345.028 268.1ZM343.148 267.72C343.148 267.027 342.995 266.433 342.688 265.94C342.382 265.433 341.962 265.053 341.428 264.8C340.908 264.533 340.328 264.4 339.688 264.4C338.768 264.4 337.982 264.693 337.328 265.28C336.688 265.867 336.322 266.68 336.228 267.72H343.148ZM346.751 268.48C346.751 267.36 346.977 266.38 347.431 265.54C347.884 264.687 348.504 264.027 349.291 263.56C350.091 263.093 350.984 262.86 351.971 262.86C352.824 262.86 353.617 263.06 354.351 263.46C355.084 263.847 355.644 264.36 356.031 265V259.2H357.871V274H356.031V271.94C355.671 272.593 355.137 273.133 354.431 273.56C353.724 273.973 352.897 274.18 351.951 274.18C350.977 274.18 350.091 273.94 349.291 273.46C348.504 272.98 347.884 272.307 347.431 271.44C346.977 270.573 346.751 269.587 346.751 268.48ZM356.031 268.5C356.031 267.673 355.864 266.953 355.531 266.34C355.197 265.727 354.744 265.26 354.171 264.94C353.611 264.607 352.991 264.44 352.311 264.44C351.631 264.44 351.011 264.6 350.451 264.92C349.891 265.24 349.444 265.707 349.111 266.32C348.777 266.933 348.611 267.653 348.611 268.48C348.611 269.32 348.777 270.053 349.111 270.68C349.444 271.293 349.891 271.767 350.451 272.1C351.011 272.42 351.631 272.58 352.311 272.58C352.991 272.58 353.611 272.42 354.171 272.1C354.744 271.767 355.197 271.293 355.531 270.68C355.864 270.053 356.031 269.327 356.031 268.5ZM370.666 263.04V274H368.846V272.38C368.5 272.94 368.013 273.38 367.386 273.7C366.773 274.007 366.093 274.16 365.346 274.16C364.493 274.16 363.726 273.987 363.046 273.64C362.366 273.28 361.826 272.747 361.426 272.04C361.04 271.333 360.846 270.473 360.846 269.46V263.04H362.646V269.22C362.646 270.3 362.92 271.133 363.466 271.72C364.013 272.293 364.76 272.58 365.706 272.58C366.68 272.58 367.446 272.28 368.006 271.68C368.566 271.08 368.846 270.207 368.846 269.06V263.04H370.666ZM373.059 268.48C373.059 267.36 373.286 266.38 373.739 265.54C374.193 264.687 374.813 264.027 375.599 263.56C376.399 263.093 377.286 262.86 378.259 262.86C379.219 262.86 380.053 263.067 380.759 263.48C381.466 263.893 381.993 264.413 382.339 265.04V263.04H384.179V274H382.339V271.96C381.979 272.6 381.439 273.133 380.719 273.56C380.013 273.973 379.186 274.18 378.239 274.18C377.266 274.18 376.386 273.94 375.599 273.46C374.813 272.98 374.193 272.307 373.739 271.44C373.286 270.573 373.059 269.587 373.059 268.48ZM382.339 268.5C382.339 267.673 382.173 266.953 381.839 266.34C381.506 265.727 381.053 265.26 380.479 264.94C379.919 264.607 379.299 264.44 378.619 264.44C377.939 264.44 377.319 264.6 376.759 264.92C376.199 265.24 375.753 265.707 375.419 266.32C375.086 266.933 374.919 267.653 374.919 268.48C374.919 269.32 375.086 270.053 375.419 270.68C375.753 271.293 376.199 271.767 376.759 272.1C377.319 272.42 377.939 272.58 378.619 272.58C379.299 272.58 379.919 272.42 380.479 272.1C381.053 271.767 381.506 271.293 381.839 270.68C382.173 270.053 382.339 269.327 382.339 268.5ZM389.075 264.82C389.395 264.193 389.848 263.707 390.435 263.36C391.035 263.013 391.762 262.84 392.615 262.84V264.72H392.135C390.095 264.72 389.075 265.827 389.075 268.04V274H387.255V263.04H389.075V264.82ZM394.036 268.48C394.036 267.36 394.262 266.38 394.716 265.54C395.169 264.687 395.789 264.027 396.576 263.56C397.376 263.093 398.269 262.86 399.256 262.86C400.109 262.86 400.902 263.06 401.636 263.46C402.369 263.847 402.929 264.36 403.316 265V259.2H405.156V274H403.316V271.94C402.956 272.593 402.422 273.133 401.716 273.56C401.009 273.973 400.182 274.18 399.236 274.18C398.262 274.18 397.376 273.94 396.576 273.46C395.789 272.98 395.169 272.307 394.716 271.44C394.262 270.573 394.036 269.587 394.036 268.48ZM403.316 268.5C403.316 267.673 403.149 266.953 402.816 266.34C402.482 265.727 402.029 265.26 401.456 264.94C400.896 264.607 400.276 264.44 399.596 264.44C398.916 264.44 398.296 264.6 397.736 264.92C397.176 265.24 396.729 265.707 396.396 266.32C396.062 266.933 395.896 267.653 395.896 268.48C395.896 269.32 396.062 270.053 396.396 270.68C396.729 271.293 397.176 271.767 397.736 272.1C398.296 272.42 398.916 272.58 399.596 272.58C400.276 272.58 400.896 272.42 401.456 272.1C402.029 271.767 402.482 271.293 402.816 270.68C403.149 270.053 403.316 269.327 403.316 268.5ZM407.551 268.48C407.551 267.36 407.778 266.38 408.231 265.54C408.685 264.687 409.305 264.027 410.091 263.56C410.891 263.093 411.778 262.86 412.751 262.86C413.711 262.86 414.545 263.067 415.251 263.48C415.958 263.893 416.485 264.413 416.831 265.04V263.04H418.671V274H416.831V271.96C416.471 272.6 415.931 273.133 415.211 273.56C414.505 273.973 413.678 274.18 412.731 274.18C411.758 274.18 410.878 273.94 410.091 273.46C409.305 272.98 408.685 272.307 408.231 271.44C407.778 270.573 407.551 269.587 407.551 268.48ZM416.831 268.5C416.831 267.673 416.665 266.953 416.331 266.34C415.998 265.727 415.545 265.26 414.971 264.94C414.411 264.607 413.791 264.44 413.111 264.44C412.431 264.44 411.811 264.6 411.251 264.92C410.691 265.24 410.245 265.707 409.911 266.32C409.578 266.933 409.411 267.653 409.411 268.48C409.411 269.32 409.578 270.053 409.911 270.68C410.245 271.293 410.691 271.767 411.251 272.1C411.811 272.42 412.431 272.58 413.111 272.58C413.791 272.58 414.411 272.42 414.971 272.1C415.545 271.767 415.998 271.293 416.331 270.68C416.665 270.053 416.831 269.327 416.831 268.5ZM434.927 262.84C435.78 262.84 436.54 263.02 437.207 263.38C437.874 263.727 438.4 264.253 438.787 264.96C439.174 265.667 439.367 266.527 439.367 267.54V274H437.567V267.8C437.567 266.707 437.294 265.873 436.747 265.3C436.214 264.713 435.487 264.42 434.567 264.42C433.62 264.42 432.867 264.727 432.307 265.34C431.747 265.94 431.467 266.813 431.467 267.96V274H429.667V267.8C429.667 266.707 429.394 265.873 428.847 265.3C428.314 264.713 427.587 264.42 426.667 264.42C425.72 264.42 424.967 264.727 424.407 265.34C423.847 265.94 423.567 266.813 423.567 267.96V274H421.747V263.04H423.567V264.62C423.927 264.047 424.407 263.607 425.007 263.3C425.62 262.993 426.294 262.84 427.027 262.84C427.947 262.84 428.76 263.047 429.467 263.46C430.174 263.873 430.7 264.48 431.047 265.28C431.354 264.507 431.86 263.907 432.567 263.48C433.274 263.053 434.06 262.84 434.927 262.84ZM443.293 261.26C442.946 261.26 442.653 261.14 442.413 260.9C442.173 260.66 442.053 260.367 442.053 260.02C442.053 259.673 442.173 259.38 442.413 259.14C442.653 258.9 442.946 258.78 443.293 258.78C443.626 258.78 443.906 258.9 444.133 259.14C444.373 259.38 444.493 259.673 444.493 260.02C444.493 260.367 444.373 260.66 444.133 260.9C443.906 261.14 443.626 261.26 443.293 261.26ZM444.173 263.04V274H442.353V263.04H444.173ZM449.094 264.82C449.414 264.193 449.868 263.707 450.454 263.36C451.054 263.013 451.781 262.84 452.634 262.84V264.72H452.154C450.114 264.72 449.094 265.827 449.094 268.04V274H447.274V263.04H449.094V264.82ZM464.735 268.1C464.735 268.447 464.715 268.813 464.675 269.2H455.915C455.982 270.28 456.349 271.127 457.015 271.74C457.695 272.34 458.515 272.64 459.475 272.64C460.262 272.64 460.915 272.46 461.435 272.1C461.969 271.727 462.342 271.233 462.555 270.62H464.515C464.222 271.673 463.635 272.533 462.755 273.2C461.875 273.853 460.782 274.18 459.475 274.18C458.435 274.18 457.502 273.947 456.675 273.48C455.862 273.013 455.222 272.353 454.755 271.5C454.289 270.633 454.055 269.633 454.055 268.5C454.055 267.367 454.282 266.373 454.735 265.52C455.189 264.667 455.822 264.013 456.635 263.56C457.462 263.093 458.409 262.86 459.475 262.86C460.515 262.86 461.435 263.087 462.235 263.54C463.035 263.993 463.649 264.62 464.075 265.42C464.515 266.207 464.735 267.1 464.735 268.1ZM462.855 267.72C462.855 267.027 462.702 266.433 462.395 265.94C462.089 265.433 461.669 265.053 461.135 264.8C460.615 264.533 460.035 264.4 459.395 264.4C458.475 264.4 457.689 264.693 457.035 265.28C456.395 265.867 456.029 266.68 455.935 267.72H462.855ZM468.958 259.2V274H467.138V259.2H468.958ZM473.88 259.2V274H472.06V259.2H473.88ZM486.421 263.04L479.821 279.16H477.941L480.101 273.88L475.681 263.04H477.701L481.141 271.92L484.541 263.04H486.421Z" fill="url(#paint1_linear_278_201)"/>
<defs>
<linearGradient id="paint0_linear_278_201" x1="362.5" y1="0" x2="362.5" y2="312" gradientUnits="userSpaceOnUse">
<stop stop-color="#632329"/>
<stop offset="0.49648" stop-color="#F25551"/>
<stop offset="1" stop-color="#50F283" stop-opacity="0.8"/>
</linearGradient>
<linearGradient id="paint1_linear_278_201" x1="362.5" y1="252" x2="362.5" y2="282" gradientUnits="userSpaceOnUse">
<stop stop-color="#632329"/>
<stop offset="0.49648" stop-color="#F25551"/>
<stop offset="1" stop-color="#50F283" stop-opacity="0.8"/>
</linearGradient>
</defs>
</svg>
