<?xml version="1.0" standalone="no"?>
<!DOCTYPE svg PUBLIC "-//W3C//DTD SVG 20010904//EN"
 "http://www.w3.org/TR/2001/REC-SVG-20010904/DTD/svg10.dtd">
<svg version="1.0" xmlns="http://www.w3.org/2000/svg"
 width="700.000000pt" height="700.000000pt" viewBox="0 0 700.000000 700.000000"
 preserveAspectRatio="xMidYMid meet">
<metadata>
Created by potrace 1.14, written by Peter Selinger 2001-2017
</metadata>
<g transform="translate(0.000000,700.000000) scale(0.100000,-0.100000)"
fill="#000000" stroke="none">
<path d="M695 6981 c-174 -40 -297 -105 -424 -225 -113 -108 -189 -232 -238
-391 l-28 -90 -2 -2730 c-1 -1625 2 -2756 8 -2795 9 -64 38 -170 48 -180 3 -3
6 -9 7 -15 2 -27 27 -74 37 -68 6 3 7 1 3 -5 -8 -13 39 -98 53 -95 6 2 8 -3 5
-11 -3 -7 7 -23 22 -35 15 -11 24 -21 20 -21 -3 0 2 -9 11 -19 9 -11 20 -18
25 -15 5 3 7 1 6 -5 -3 -10 99 -111 112 -111 4 0 20 -11 35 -24 16 -14 32 -23
37 -20 4 3 8 1 8 -4 0 -11 57 -36 77 -35 7 0 11 -2 8 -6 -4 -8 107 -49 153
-57 15 -2 50 -8 77 -13 28 -5 958 -9 2067 -9 1857 0 2016 2 2011 17 -4 13 -2
13 7 -2 9 -14 26 -17 86 -17 44 0 73 4 69 9 -3 5 -1 13 5 16 6 4 9 1 8 -7 -3
-11 106 -13 607 -13 632 0 731 4 721 32 -6 14 -4 14 10 2 14 -11 18 -11 21 -1
3 6 9 10 14 6 5 -3 23 2 41 10 17 9 37 16 45 16 8 0 11 5 7 12 -4 7 -3 8 4 4
16 -9 113 44 105 57 -3 6 -1 7 6 3 15 -10 154 101 145 116 -4 6 -3 8 3 5 5 -4
23 7 38 23 16 17 26 30 23 30 -3 0 7 14 23 31 64 69 166 302 156 356 -2 12 -1
20 3 18 4 -3 10 12 13 33 3 20 5 1259 5 2752 1 2582 0 2719 -17 2795 -75 332
-301 569 -636 669 l-70 21 -2750 2 c-2617 1 -2754 1 -2830 -16z m5462 -424
c107 -6 208 -53 283 -133 51 -54 104 -153 115 -214 3 -17 6 -1007 7 -2200 1
-1553 4 -2167 12 -2163 8 5 8 3 0 -8 -13 -17 -13 -697 0 -718 6 -9 5 -12 0 -8
-6 3 -10 -40 -10 -109 0 -74 3 -114 10 -114 7 0 6 -3 -1 -8 -7 -4 -11 -16 -9
-27 2 -11 -5 -49 -16 -85 -11 -36 -20 -71 -20 -77 -1 -7 -4 -13 -8 -13 -4 0
-12 -11 -18 -24 -10 -23 -22 -40 -62 -85 -8 -9 -36 -33 -62 -53 -26 -19 -44
-39 -40 -43 4 -5 2 -5 -4 -2 -6 3 -39 -3 -75 -15 -52 -16 -92 -20 -219 -21
-94 -1 -158 -5 -162 -12 -5 -6 -8 -6 -8 3 0 6 -7 12 -16 12 -9 0 -12 -5 -8
-12 5 -7 3 -8 -7 -2 -20 12 -99 12 -99 0 0 -8 -3 -8 -8 0 -9 14 -94 16 -85 1
4 -6 1 -7 -8 -1 -20 13 -73 13 -81 0 -5 -8 -8 -7 -8 2 0 6 -7 12 -16 12 -9 0
-12 -5 -8 -12 5 -7 3 -8 -7 -2 -20 13 -272 13 -281 0 -5 -7 -8 -7 -8 2 0 6 -7
12 -16 12 -9 0 -12 -5 -8 -12 5 -7 3 -8 -7 -2 -21 13 -272 13 -281 0 -5 -7 -8
-7 -8 2 0 6 -7 12 -16 12 -9 0 -12 -5 -8 -12 5 -7 3 -8 -7 -2 -20 13 -272 13
-281 0 -5 -7 -8 -7 -8 2 0 6 -7 12 -16 12 -9 0 -12 -5 -8 -12 5 -7 3 -8 -7 -2
-20 12 -99 12 -99 0 0 -8 -3 -8 -8 0 -9 14 -94 16 -85 1 4 -6 1 -7 -8 -1 -20
13 -73 13 -81 0 -5 -8 -8 -7 -8 2 0 6 -7 12 -16 12 -9 0 -12 -5 -8 -12 5 -7 3
-8 -7 -2 -20 13 -272 13 -281 0 -5 -7 -8 -7 -8 2 0 6 -7 12 -16 12 -9 0 -12
-5 -8 -12 5 -7 3 -8 -7 -2 -21 13 -379 13 -379 0 0 -6 -4 -5 -9 2 -9 15 -42
13 -53 -3 -5 -6 -8 -5 -8 3 0 6 -7 12 -16 12 -9 0 -12 -5 -8 -12 5 -7 3 -8 -7
-2 -19 12 -221 13 -236 1 -8 -6 -13 -6 -13 0 0 5 -54 9 -124 9 -72 -1 -122 -5
-119 -10 4 -5 0 -5 -8 0 -20 13 -412 12 -421 -1 -5 -6 -8 -6 -8 3 0 6 -7 12
-16 12 -9 0 -12 -5 -8 -12 5 -7 3 -8 -7 -2 -19 12 -221 13 -236 1 -8 -6 -13
-6 -13 0 0 5 -54 9 -124 9 -72 -1 -122 -5 -119 -10 4 -5 0 -6 -8 0 -21 13
-359 13 -359 0 0 -6 -4 -5 -9 2 -9 15 -42 13 -53 -3 -5 -6 -8 -5 -8 3 0 6 -7
12 -16 12 -9 0 -12 -5 -8 -12 5 -7 3 -8 -7 -2 -20 13 -432 12 -441 -1 -5 -6
-8 -6 -8 3 0 6 -7 12 -16 12 -9 0 -12 -5 -8 -12 5 -7 3 -8 -7 -2 -20 12 -99
12 -99 0 0 -6 -4 -6 -8 1 -4 7 -19 12 -32 11 -21 -2 -144 11 -160 17 -98 35
-195 115 -246 205 -61 107 -57 -99 -55 2845 2 2280 4 2697 16 2738 36 121 125
224 242 280 67 32 70 32 258 37 234 6 5088 3 5202 -3z m-5749 -5562 c-3 -3 -9
2 -12 12 -6 14 -5 15 5 6 7 -7 10 -15 7 -18z m6279 -40 c0 -8 -4 -12 -9 -9 -5
3 -6 10 -3 15 9 13 12 11 12 -6z m-6641 -115 c0 -12 -4 -16 -9 -11 -5 5 -6 14
-3 20 10 15 12 14 12 -9z m359 -319 c3 -5 2 -12 -3 -15 -5 -3 -9 1 -9 9 0 17
3 19 12 6z m-241 -87 c3 -8 2 -12 -4 -9 -6 3 -10 10 -10 16 0 14 7 11 14 -7z
m1601 -73 c3 -5 2 -12 -3 -15 -5 -3 -9 1 -9 9 0 17 3 19 12 6z m1920 0 c3 -5
2 -12 -3 -15 -5 -3 -9 1 -9 9 0 17 3 19 12 6z m-3305 -77 c0 -8 -19 -13 -24
-6 -3 5 1 9 9 9 8 0 15 -2 15 -3z m630 0 c0 -8 -19 -13 -24 -6 -3 5 1 9 9 9 8
0 15 -2 15 -3z m874 -10 c3 -8 2 -12 -4 -9 -6 3 -10 10 -10 16 0 14 7 11 14
-7z m1240 8 c3 -5 -1 -9 -9 -9 -8 0 -12 4 -9 9 3 4 7 8 9 8 2 0 6 -4 9 -8z
m680 -8 c3 -8 2 -12 -4 -9 -6 3 -10 10 -10 16 0 14 7 11 14 -7z m2456 10 c0
-8 -19 -13 -24 -6 -3 5 1 9 9 9 8 0 15 -2 15 -3z m181 -17 c-10 -9 -11 -8 -5
6 3 10 9 15 12 12 3 -3 0 -11 -7 -18z m-3756 -16 c3 -5 2 -12 -3 -15 -5 -3 -9
1 -9 9 0 17 3 19 12 6z m1362 -6 c0 -8 -4 -12 -9 -9 -5 3 -6 10 -3 15 9 13 12
11 12 -6z m238 6 c3 -5 2 -12 -3 -15 -5 -3 -9 1 -9 9 0 17 3 19 12 6z m402 -6
c0 -8 -4 -12 -9 -9 -5 3 -6 10 -3 15 9 13 12 11 12 -6z m640 0 c0 -8 -4 -12
-9 -9 -5 3 -6 10 -3 15 9 13 12 11 12 -6z m238 6 c3 -5 2 -12 -3 -15 -5 -3 -9
1 -9 9 0 17 3 19 12 6z m402 -6 c0 -8 -4 -12 -9 -9 -5 3 -6 10 -3 15 9 13 12
11 12 -6z m-5313 -3 c2 -4 -4 -8 -14 -8 -10 0 -16 4 -14 8 7 10 21 10 28 0z
m120 0 c3 -5 -1 -9 -9 -9 -8 0 -12 4 -9 9 3 4 7 8 9 8 2 0 6 -4 9 -8z m396 2
c0 -8 -19 -13 -24 -6 -3 5 1 9 9 9 8 0 15 -2 15 -3z m120 0 c0 -8 -19 -13 -24
-6 -3 5 1 9 9 9 8 0 15 -2 15 -3z m917 -9 c0 -8 -4 -12 -9 -9 -5 3 -6 10 -3
15 9 13 12 11 12 -6z m317 7 c3 -5 -1 -9 -9 -9 -8 0 -12 4 -9 9 3 4 7 8 9 8 2
0 6 -4 9 -8z m120 0 c3 -5 -1 -9 -9 -9 -8 0 -12 4 -9 9 3 4 7 8 9 8 2 0 6 -4
9 -8z m1450 0 c3 -5 -1 -9 -9 -9 -8 0 -12 4 -9 9 3 4 7 8 9 8 2 0 6 -4 9 -8z
m151 -10 c-3 -3 -11 0 -18 7 -9 10 -8 11 6 5 10 -3 15 -9 12 -12z m489 10 c3
-5 -1 -9 -9 -9 -8 0 -12 4 -9 9 3 4 7 8 9 8 2 0 6 -4 9 -8z m640 0 c3 -5 -1
-9 -9 -9 -8 0 -12 4 -9 9 3 4 7 8 9 8 2 0 6 -4 9 -8z m151 -10 c-3 -3 -11 0
-18 7 -9 10 -8 11 6 5 10 -3 15 -9 12 -12z m489 10 c3 -5 -1 -9 -9 -9 -8 0
-12 4 -9 9 3 4 7 8 9 8 2 0 6 -4 9 -8z m120 0 c3 -5 -1 -9 -9 -9 -8 0 -12 4
-9 9 3 4 7 8 9 8 2 0 6 -4 9 -8z m-4049 -11 c3 -5 2 -12 -3 -15 -5 -3 -9 1 -9
9 0 17 3 19 12 6z m-785 -25 c0 -2 -8 -10 -17 -17 -16 -13 -17 -12 -4 4 13 16
21 21 21 13z m304 -4 c3 -5 -1 -9 -9 -9 -8 0 -12 4 -9 9 3 4 7 8 9 8 2 0 6 -4
9 -8z m326 4 c0 -2 -7 -7 -16 -10 -8 -3 -12 -2 -9 4 6 10 25 14 25 6z m1594
-4 c3 -5 -1 -9 -9 -9 -8 0 -12 4 -9 9 3 4 7 8 9 8 2 0 6 -4 9 -8z m-2679 -42
c3 -5 1 -10 -4 -10 -6 0 -11 5 -11 10 0 6 2 10 4 10 3 0 8 -4 11 -10z m80 0
c3 -5 1 -10 -4 -10 -6 0 -11 5 -11 10 0 6 2 10 4 10 3 0 8 -4 11 -10z m1365 6
c0 -3 -4 -8 -10 -11 -5 -3 -10 -1 -10 4 0 6 5 11 10 11 6 0 10 -2 10 -4z m80
-6 c0 -5 -2 -10 -4 -10 -3 0 -8 5 -11 10 -3 6 -1 10 4 10 6 0 11 -4 11 -10z
m640 0 c0 -5 -5 -10 -11 -10 -5 0 -7 5 -4 10 3 6 8 10 11 10 2 0 4 -4 4 -10z
m75 0 c3 -5 1 -10 -4 -10 -6 0 -11 5 -11 10 0 6 2 10 4 10 3 0 8 -4 11 -10z
m3285 0 c0 -5 -2 -10 -4 -10 -3 0 -8 5 -11 10 -3 6 -1 10 4 10 6 0 11 -4 11
-10z m-5885 -9 c3 -5 2 -12 -3 -15 -5 -3 -9 1 -9 9 0 17 3 19 12 6z m2722 -16
c0 -8 -4 -12 -9 -9 -5 3 -6 10 -3 15 9 13 12 11 12 -6z m-1817 -11 c0 -8 -19
-13 -24 -6 -3 5 1 9 9 9 8 0 15 -2 15 -3z m315 -3 c-9 -8 -36 -10 -30 -2 2 4
11 8 20 8 8 0 13 -3 10 -6z m1605 3 c0 -8 -19 -13 -24 -6 -3 5 1 9 9 9 8 0 15
-2 15 -3z m315 -3 c-9 -8 -36 -10 -30 -2 2 4 11 8 20 8 8 0 13 -3 10 -6z
m-2915 -37 c0 -8 -19 -13 -24 -6 -3 5 1 9 9 9 8 0 15 -2 15 -3z m2475 -12 c-3
-3 -11 0 -18 7 -9 10 -8 11 6 5 10 -3 15 -9 12 -12z m-938 -7 c0 -8 -4 -12 -9
-9 -5 3 -6 10 -3 15 9 13 12 11 12 -6z m-923 -31 c3 -8 2 -12 -4 -9 -6 3 -10
10 -10 16 0 14 7 11 14 -7z m106 10 c0 -8 -19 -13 -24 -6 -3 5 1 9 9 9 8 0 15
-2 15 -3z m51 -11 c13 -17 13 -17 -6 -3 -11 8 -22 16 -24 17 -2 2 0 3 6 3 6 0
17 -8 24 -17z m163 1 c3 -8 2 -12 -4 -9 -6 3 -10 10 -10 16 0 14 7 11 14 -7z
m161 -2 c-3 -3 -11 0 -18 7 -9 10 -8 11 6 5 10 -3 15 -9 12 -12z m1015 14 c0
-2 -8 -10 -17 -17 -16 -13 -17 -12 -4 4 13 16 21 21 21 13z m424 -12 c3 -8 2
-12 -4 -9 -6 3 -10 10 -10 16 0 14 7 11 14 -7z m106 10 c0 -8 -19 -13 -24 -6
-3 5 1 9 9 9 8 0 15 -2 15 -3z m51 -11 c13 -17 13 -17 -6 -3 -11 8 -22 16 -24
17 -2 2 0 3 6 3 6 0 17 -8 24 -17z m163 1 c3 -8 2 -12 -4 -9 -6 3 -10 10 -10
16 0 14 7 11 14 -7z m161 -2 c-3 -3 -11 0 -18 7 -9 10 -8 11 6 5 10 -3 15 -9
12 -12z m150 8 c-3 -5 -12 -10 -18 -10 -7 0 -6 4 3 10 19 12 23 12 15 0z m640
0 c-3 -5 -12 -10 -18 -10 -7 0 -6 4 3 10 19 12 23 12 15 0z m385 6 c0 -2 -8
-10 -17 -17 -16 -13 -17 -12 -4 4 13 16 21 21 21 13z m255 -6 c-3 -5 -12 -10
-18 -10 -7 0 -6 4 3 10 19 12 23 12 15 0z m640 0 c-3 -5 -12 -10 -18 -10 -7 0
-6 4 3 10 19 12 23 12 15 0z"/>
<path d="M1810 4290 l0 -180 53 -1 c28 0 139 -1 244 0 l193 0 2 -742 3 -742
223 0 222 0 0 742 0 743 203 -1 c111 0 221 0 245 0 l42 1 0 180 0 180 -715 0
-715 0 0 -180z"/>
<path d="M3464 3548 l1 -923 385 1 c457 0 504 4 655 51 228 72 418 229 514
427 79 164 102 279 96 481 -6 221 -57 374 -175 529 -138 183 -331 295 -592
342 -18 4 -225 8 -459 11 l-426 5 1 -924z m828 516 c198 -51 325 -188 358
-386 11 -63 9 -245 -3 -288 -2 -8 -7 -28 -12 -45 -26 -98 -119 -213 -213 -263
-87 -46 -175 -64 -342 -67 -79 -1 -149 -1 -155 2 -14 5 -17 1055 -4 1063 19
13 310 0 371 -16z"/>
</g>
</svg>
